<svg aria-hidden="true" data-icon="x" role="img" viewBox="0 0 448 512" fill="none" xmlns="http://www.w3.org/2000/svg"><mask id="a" style="mask-type:alpha" maskUnits="userSpaceOnUse" x="0" y="32" width="448" height="448"><path d="M416 32H32C14 32 0 46 0 64v384c0 18 14 32 32 32h384c18 0 32-14 32-32V64c0-18-14-32-32-32Z" fill="#D9D9D9"/></mask><g mask="url(#a)"><path fill-rule="evenodd" clip-rule="evenodd" d="M448 32H0v448h448V32ZM184 137h-79l79 132-79 106h27l79-79 79 79h79L264 243l79-106h-27l-79 79-53-79Zm106 238L132 137h26l158 238h-26Z" fill="#fff"/></g></svg>